<?xml version="1.0" encoding="UTF-8"?><svg id="Camada_2" xmlns="http://www.w3.org/2000/svg" viewBox="0 0 663.15 477.38"><defs><style>.cls-1{fill:#0e0e0f;stroke-width:0px;}</style></defs><g id="Camada_1-2"><path class="cls-1" d="m237.26,248.06c1.22-18.2,1.17-36.54.01-54.73,49.56,33.96,109.36,22.63,129.75-26.34,10.74,11.26,23.25,20.8,37.38,27.62,43.14,21.29,74.89,12,91.24-33.34,18.88,34.66,29.1,52.43,58.09,96.11-23.19-57.11-52.83-128.48-73.37-184.23,0,0,8.58,65.22-6.79,84.88-20.59,26.34-60.6,15.23-79.86-7.72-34.47-41.09-61.05-114.01-61.05-114.01,0,0,5.39,84.75,5.39,84.75.99,58.17-51.29,64.61-85.24,26.48C224.16,115.37,185.26,0,185.26,0c4.84,53.13,25.27,129.97,3.34,254.26-79.87,14.47-163.9,53.44-185.26,137.65-8.76,30.3-.93,66.09,30.89,79.78,51.75,20.41,108.34-17.93,139.84-54.83,31.56-37.2,49.83-81.8,58.29-128.75,69.89-10.53,141.49-10.01,211.99-4.45,72.62,6.15,149.13,25.23,218.8,47.41-115.32-56.44-294.98-94.12-425.9-83.02Zm-67.09,80.81c-17.48,43.73-58.61,96.8-107.77,99.62-18.62,0-13.73-20.94-11.61-28.38,16.9-57.87,72.75-85.86,129.39-101.05-2.74,10.13-6.05,20.09-10.01,29.8Z"/></g></svg>